PathFileType	4	(X/Y/Z)	 2.8Hzlow3min.trc
DataRate	CameraRate	NumFrames	NumMarkers	Units	OrigDataRate	OrigDataStartFrame	OrigNumFrames
200	200	11	35	m	200	376	1000
Frame#	Time	C7			LSH			RSH			MAN			RASI			LASI			HIPR			HIPL			RPSI			LPSI			COX			RTHI1			RTHI2			RTHI3			RTHI4			RSHA1			RSHA2			RSHA3			RSHA4			RHEEL			RMET5			RMET1			RTOE			LTHI1			LTHI2			LTHI3			LTHI4			LSHA1			LSHA2			LSHA3			LSHA4			LHEEL			LMET5			LMET1			LTOE			
		X1	Y1	Z1	X2	Y2	Z2	X3	Y3	Z3	X4	Y4	Z4	X5	Y5	Z5	X6	Y6	Z6	X7	Y7	Z7	X8	Y8	Z8	X9	Y9	Z9	X10	Y10	Z10	X11	Y11	Z11	X12	Y12	Z12	X13	Y13	Z13	X14	Y14	Z14	X15	Y15	Z15	X16	Y16	Z16	X17	Y17	Z17	X18	Y18	Z18	X19	Y19	Z19	X20	Y20	Z20	X21	Y21	Z21	X22	Y22	Z22	X23	Y23	Z23	X24	Y24	Z24	X25	Y25	Z25	X26	Y26	Z26	X27	Y27	Z27	X28	Y28	Z28	X29	Y29	Z29	X30	Y30	Z30	X31	Y31	Z31	X32	Y32	Z32	X33	Y33	Z33	X34	Y34	Z34	X35	Y35	Z35	
376	1.8800	-0.277266	1.369119	-0.543273	-0.211764	1.359636	-0.718295	-0.211928	1.336747	-0.373043	-0.144193	1.311220	-0.543836	-0.127798	0.931442	-0.428153	-0.137154	0.918820	-0.660269	-0.194768	0.976214	-0.398642	-0.194581	0.978002	-0.686883	-0.291481	0.958415	-0.489075	-0.293753	0.955693	-0.589669	-0.292884	0.968442	-0.537447	-0.207501	0.729151	-0.368723	-0.182133	0.675359	-0.370085	-0.122428	0.701343	-0.373086	-0.141813	0.759465	-0.373001	-0.229524	0.340802	-0.375114	-0.250854	0.303947	-0.383729	-0.196454	0.283028	-0.399685	-0.180147	0.319642	-0.395683	-0.371273	0.084777	-0.440876	-0.222359	0.028292	-0.387818	-0.192686	0.036108	-0.467324	-0.164723	0.028148	-0.460622	-0.220765	0.726453	-0.712611	-0.199596	0.668731	-0.712763	-0.137317	0.685813	-0.714030	-0.149358	0.744869	-0.714403	-0.265373	0.325674	-0.692800	-0.283447	0.289456	-0.687393	-0.225578	0.266286	-0.697156	-0.214501	0.308709	-0.701323	-0.383528	0.085650	-0.638386	-0.250956	0.029360	-0.705925	-0.202901	0.037597	-0.642706	-0.179230	0.028587	-0.644483	
377	1.8850	-0.277229	1.371357	-0.543241	-0.211685	1.362089	-0.718255	-0.211940	1.339026	-0.373023	-0.144173	1.313608	-0.543847	-0.127302	0.933682	-0.428444	-0.136784	0.921302	-0.660097	-0.193474	0.978678	-0.398851	-0.193195	0.981258	-0.686856	-0.290915	0.960861	-0.488901	-0.293249	0.958277	-0.589604	-0.292432	0.970902	-0.537348	-0.206819	0.731264	-0.368827	-0.181506	0.677440	-0.370225	-0.121792	0.703389	-0.373464	-0.141129	0.761534	-0.373337	-0.229222	0.342850	-0.374936	-0.250579	0.305995	-0.383371	-0.196129	0.285088	-0.399482	-0.179859	0.321713	-0.395558	-0.370422	0.086825	-0.440292	-0.222128	0.028422	-0.387854	-0.192575	0.036088	-0.467342	-0.164720	0.028150	-0.460676	-0.220510	0.728750	-0.712233	-0.199382	0.670964	-0.712175	-0.137084	0.687970	-0.713524	-0.149083	0.747059	-0.714099	-0.264987	0.327919	-0.692603	-0.283048	0.291689	-0.687265	-0.225124	0.268571	-0.696828	-0.214069	0.311008	-0.700947	-0.382708	0.087720	-0.638839	-0.250627	0.029634	-0.705712	-0.202758	0.037590	-0.642621	-0.179217	0.028591	-0.644424	
378	1.8900	-0.277183	1.373910	-0.543209	-0.211610	1.364913	-0.718203	-0.211939	1.341651	-0.373040	-0.144144	1.316317	-0.543862	-0.126794	0.936178	-0.428738	-0.136434	0.924088	-0.659970	-0.192277	0.981277	-0.399066	-0.191901	0.984653	-0.686721	-0.290331	0.963565	-0.488725	-0.292739	0.961112	-0.589525	-0.291967	0.973624	-0.537238	-0.206075	0.733634	-0.368860	-0.180808	0.679791	-0.370300	-0.121098	0.705712	-0.373858	-0.140396	0.763874	-0.373683	-0.228880	0.345117	-0.374670	-0.250253	0.308258	-0.382928	-0.195754	0.287382	-0.399174	-0.179524	0.324033	-0.395312	-0.369388	0.089056	-0.439645	-0.221848	0.028584	-0.387869	-0.192461	0.036073	-0.467354	-0.164725	0.028154	-0.460733	-0.220101	0.731348	-0.712004	-0.198990	0.673509	-0.711694	-0.136681	0.690461	-0.712993	-0.148659	0.749579	-0.713787	-0.264618	0.330331	-0.692513	-0.282648	0.294116	-0.687282	-0.224650	0.271083	-0.696612	-0.213641	0.313540	-0.700689	-0.381784	0.089982	-0.639400	-0.250230	0.029939	-0.705544	-0.202616	0.037581	-0.642547	-0.179213	0.028594	-0.644364	
379	1.8950	-0.277134	1.376740	-0.543178	-0.211531	1.368065	-0.718137	-0.211934	1.344592	-0.373082	-0.144112	1.319309	-0.543877	-0.126281	0.938916	-0.429027	-0.136091	0.927143	-0.659881	-0.191232	0.984009	-0.399264	-0.190770	0.988157	-0.686458	-0.289737	0.966497	-0.488547	-0.292225	0.964170	-0.589428	-0.291493	0.976569	-0.537108	-0.205288	0.736235	-0.368816	-0.180058	0.682381	-0.370289	-0.120360	0.708285	-0.374239	-0.139629	0.766460	-0.374027	-0.228530	0.347580	-0.374334	-0.249900	0.310713	-0.382421	-0.195334	0.289876	-0.398765	-0.179156	0.326564	-0.394928	-0.368206	0.091452	-0.438955	-0.221522	0.028780	-0.387865	-0.192345	0.036059	-0.467351	-0.164739	0.028159	-0.460785	-0.219527	0.734195	-0.711875	-0.198436	0.676336	-0.711353	-0.136121	0.693245	-0.712453	-0.148077	0.752370	-0.713435	-0.264284	0.332884	-0.692524	-0.282267	0.296695	-0.687439	-0.224178	0.273786	-0.696525	-0.213239	0.316271	-0.700556	-0.380757	0.092389	-0.640052	-0.249767	0.030277	-0.705411	-0.202474	0.037571	-0.642480	-0.179216	0.028596	-0.644304	
380	1.9000	-0.277086	1.379804	-0.543150	-0.211443	1.371503	-0.718059	-0.211937	1.347809	-0.373157	-0.144084	1.322533	-0.543888	-0.125773	0.941868	-0.429313	-0.135745	0.930434	-0.659816	-0.190364	0.986896	-0.399438	-0.189842	0.991747	-0.686070	-0.289135	0.969632	-0.488368	-0.291713	0.967421	-0.589320	-0.291016	0.979698	-0.536959	-0.204471	0.739063	-0.368674	-0.179278	0.685185	-0.370209	-0.119604	0.711077	-0.374639	-0.138846	0.769251	-0.374350	-0.228185	0.350225	-0.373924	-0.249526	0.313335	-0.381859	-0.194888	0.292552	-0.398242	-0.178763	0.329292	-0.394418	-0.366886	0.093977	-0.438240	-0.221151	0.029008	-0.387843	-0.192227	0.036049	-0.467340	-0.164762	0.028167	-0.460838	-0.218827	0.737283	-0.711918	-0.197746	0.679403	-0.711158	-0.135429	0.696286	-0.711931	-0.147370	0.755418	-0.713086	-0.264002	0.335575	-0.692652	-0.281915	0.299390	-0.687721	-0.223725	0.276640	-0.696574	-0.212884	0.319171	-0.700552	-0.379632	0.094906	-0.640775	-0.249238	0.030654	-0.705309	-0.202323	0.037562	-0.642416	-0.179222	0.028600	-0.644246	
381	1.9050	-0.277040	1.383061	-0.543125	-0.211345	1.375180	-0.717965	-0.211963	1.351282	-0.373242	-0.144077	1.325984	-0.543888	-0.125270	0.945007	-0.429595	-0.135391	0.933919	-0.659763	-0.189655	0.989965	-0.399590	-0.189138	0.995417	-0.685589	-0.288533	0.972932	-0.488191	-0.291204	0.970834	-0.589204	-0.290537	0.982984	-0.536795	-0.203641	0.742060	-0.368479	-0.178472	0.688174	-0.370067	-0.118825	0.714060	-0.374998	-0.138053	0.772230	-0.374648	-0.227860	0.353041	-0.373442	-0.249140	0.316092	-0.381254	-0.194425	0.295383	-0.397613	-0.178343	0.332194	-0.393767	-0.365429	0.096597	-0.437540	-0.220734	0.029264	-0.387809	-0.192105	0.036048	-0.467322	-0.164795	0.028180	-0.460885	-0.218015	0.740565	-0.712078	-0.196951	0.682677	-0.711120	-0.134636	0.699540	-0.711449	-0.146548	0.758673	-0.712744	-0.263792	0.338399	-0.692914	-0.281604	0.302179	-0.688102	-0.223312	0.279613	-0.696763	-0.212591	0.322209	-0.700684	-0.378415	0.097511	-0.641566	-0.248654	0.031062	-0.705239	-0.202150	0.037565	-0.642344	-0.179227	0.028607	-0.644188	
382	1.9100	-0.277000	1.386471	-0.543104	-0.211234	1.379050	-0.717853	-0.212017	1.354980	-0.373326	-0.144111	1.329651	-0.543877	-0.124791	0.948305	-0.429868	-0.135027	0.937559	-0.659705	-0.189082	0.993231	-0.399720	-0.188653	0.999176	-0.685056	-0.287929	0.976359	-0.488032	-0.290700	0.974372	-0.589085	-0.290053	0.986389	-0.536624	-0.202807	0.745197	-0.368246	-0.177661	0.691315	-0.369894	-0.118042	0.717194	-0.375314	-0.137262	0.775359	-0.374911	-0.227560	0.355978	-0.372900	-0.248749	0.318963	-0.380615	-0.193954	0.298338	-0.396880	-0.177921	0.335230	-0.393011	-0.363824	0.099285	-0.436876	-0.220271	0.029545	-0.387766	-0.191981	0.036047	-0.467288	-0.164839	0.028199	-0.460923	-0.217111	0.744008	-0.712337	-0.196082	0.686119	-0.711222	-0.133768	0.702960	-0.711022	-0.145638	0.762087	-0.712416	-0.263651	0.341278	-0.693227	-0.281344	0.305038	-0.688566	-0.222938	0.282697	-0.697080	-0.212371	0.325356	-0.700944	-0.377113	0.100164	-0.642410	-0.248015	0.031491	-0.705196	-0.201947	0.037590	-0.642256	-0.179225	0.028619	-0.644131	
383	1.9150	-0.276961	1.389991	-0.543085	-0.211110	1.383085	-0.717712	-0.212099	1.358856	-0.373422	-0.144192	1.333496	-0.543854	-0.124344	0.951736	-0.430118	-0.134654	0.941327	-0.659639	-0.188616	0.996699	-0.399839	-0.188363	1.003027	-0.684514	-0.287327	0.979878	-0.487897	-0.290200	0.978006	-0.588968	-0.289565	0.989885	-0.536464	-0.201981	0.748456	-0.367995	-0.176851	0.694564	-0.369676	-0.117269	0.720437	-0.375611	-0.136476	0.778604	-0.375138	-0.227293	0.359038	-0.372293	-0.248359	0.321928	-0.379946	-0.193461	0.301401	-0.396052	-0.177505	0.338371	-0.392178	-0.362156	0.102092	-0.436179	-0.219768	0.029841	-0.387713	-0.191854	0.036050	-0.467235	-0.164893	0.028223	-0.460950	-0.216162	0.747599	-0.712733	-0.195165	0.689691	-0.711456	-0.132856	0.706509	-0.710658	-0.144685	0.765640	-0.712138	-0.263588	0.344248	-0.693639	-0.281137	0.307945	-0.689096	-0.222617	0.285863	-0.697528	-0.212227	0.328586	-0.701326	-0.375728	0.102845	-0.643289	-0.247321	0.031945	-0.705159	-0.201704	0.037644	-0.642147	-0.179211	0.028639	-0.644073	
384	1.9200	-0.276920	1.393582	-0.543068	-0.210975	1.387236	-0.717540	-0.212214	1.362862	-0.373542	-0.144332	1.337486	-0.543819	-0.123936	0.955267	-0.430345	-0.134269	0.945180	-0.659556	-0.188230	1.000352	-0.399962	-0.188231	1.006968	-0.684012	-0.286735	0.983458	-0.487789	-0.289705	0.981707	-0.588862	-0.289076	0.993445	-0.536330	-0.201176	0.751799	-0.367749	-0.176055	0.697904	-0.369434	-0.116521	0.723762	-0.375901	-0.135710	0.781932	-0.375321	-0.227056	0.362190	-0.371617	-0.247972	0.324973	-0.379226	-0.192945	0.304544	-0.395127	-0.177103	0.341593	-0.391304	-0.360397	0.104959	-0.435473	-0.219232	0.030144	-0.387649	-0.191721	0.036058	-0.467165	-0.164954	0.028255	-0.460972	-0.215205	0.751305	-0.713265	-0.194220	0.693358	-0.711796	-0.131923	0.710155	-0.710366	-0.143724	0.769310	-0.711942	-0.263603	0.347299	-0.694164	-0.280980	0.310876	-0.689667	-0.222350	0.289093	-0.698089	-0.212158	0.331865	-0.701813	-0.374273	0.105521	-0.644190	-0.246580	0.032416	-0.705136	-0.201412	0.037739	-0.642017	-0.179180	0.028667	-0.644017	
385	1.9250	-0.276877	1.397209	-0.543053	-0.210827	1.391456	-0.717333	-0.212357	1.366959	-0.373691	-0.144492	1.341557	-0.543795	-0.123572	0.958866	-0.430542	-0.133874	0.949076	-0.659455	-0.187895	1.004162	-0.400107	-0.188217	1.010991	-0.683585	-0.286156	0.987067	-0.487716	-0.289207	0.985440	-0.588771	-0.288582	0.997040	-0.536232	-0.200396	0.755185	-0.367505	-0.175282	0.701298	-0.369183	-0.115782	0.727149	-0.376039	-0.134969	0.785315	-0.375463	-0.226841	0.365394	-0.370899	-0.247584	0.328055	-0.378478	-0.192398	0.307740	-0.394137	-0.176706	0.344847	-0.390394	-0.358539	0.107854	-0.434785	-0.218664	0.030455	-0.387577	-0.191577	0.036074	-0.467090	-0.165015	0.028296	-0.460994	-0.214253	0.755081	-0.713877	-0.193267	0.697091	-0.712219	-0.130988	0.713874	-0.710154	-0.142778	0.773056	-0.711821	-0.263681	0.350349	-0.694723	-0.280869	0.313811	-0.690264	-0.222133	0.292338	-0.698746	-0.212155	0.335164	-0.702395	-0.372757	0.108173	-0.645077	-0.245801	0.032900	-0.705118	-0.201075	0.037878	-0.641863	-0.179133	0.028704	-0.643964	
386	1.9300	-0.276834	1.400846	-0.543041	-0.210662	1.395702	-0.717092	-0.212522	1.371111	-0.373873	-0.144659	1.345666	-0.543789	-0.123266	0.962498	-0.430701	-0.133467	0.952983	-0.659339	-0.187606	1.008082	-0.400288	-0.188273	1.015089	-0.683243	-0.285588	0.990675	-0.487684	-0.288701	0.989181	-0.588707	-0.288090	1.000640	-0.536168	-0.199651	0.758604	-0.367260	-0.174550	0.704711	-0.368921	-0.115077	0.730554	-0.376106	-0.134266	0.788715	-0.375556	-0.226616	0.368602	-0.370176	-0.247157	0.331129	-0.377767	-0.191814	0.310959	-0.393090	-0.176307	0.348128	-0.389464	-0.356594	0.110756	-0.434090	-0.218061	0.030775	-0.387505	-0.191421	0.036090	-0.467003	-0.165069	0.028336	-0.461015	-0.213319	0.758888	-0.714524	-0.192327	0.700858	-0.712699	-0.130072	0.717630	-0.710015	-0.141864	0.776831	-0.711742	-0.263808	0.353371	-0.695309	-0.280796	0.316719	-0.690880	-0.221957	0.295585	-0.699473	-0.212206	0.338449	-0.703044	-0.371192	0.110768	-0.645946	-0.244984	0.033397	-0.705089	-0.200704	0.038052	-0.641699	-0.179072	0.028748	-0.643920	
